<?xml version="1.0" encoding="UTF-8" standalone="no"?>
<!DOCTYPE svg PUBLIC "-//W3C//DTD SVG 1.1//EN" "http://www.w3.org/Graphics/SVG/1.1/DTD/svg11.dtd">
<svg width="100%" height="100%" viewBox="0 0 832 455" version="1.1" xmlns="http://www.w3.org/2000/svg" xmlns:xlink="http://www.w3.org/1999/xlink" xml:space="preserve" xmlns:serif="http://www.serif.com/" style="fill-rule:evenodd;clip-rule:evenodd;stroke-linejoin:round;stroke-miterlimit:2;">
    <g transform="matrix(1,0,0,1,-3532.01,-3317.25)">
        <g transform="matrix(1,0,0,2.13449,2667.89,2907.6)">
            <g id="Title" transform="matrix(0.740825,0,0,0.347074,-142.384,-92.3852)">
                <g transform="matrix(5.83523,0,0,5.83523,-853.563,-952.751)">
                    <g transform="matrix(33.1647,0,0,33.1647,418.398,327.005)">
                        <path d="M0.619,-0L0.619,-0.7L0.565,-0.7L0.565,-0.367L0.119,-0.367L0.119,-0.7L0.065,-0.7L0.065,-0L0.119,-0L0.119,-0.318L0.565,-0.318L0.565,-0L0.619,-0Z" style="fill:white;fill-rule:nonzero;"/>
                    </g>
                    <g transform="matrix(33.1647,0,0,33.1647,441.911,327.005)">
                        <path d="M0.104,-0.496L0.104,-0L0.055,-0L0.055,-0.496L0.104,-0.496ZM0.041,-0.655C0.041,-0.603 0.12,-0.603 0.12,-0.655C0.12,-0.707 0.041,-0.707 0.041,-0.655Z" style="fill:white;fill-rule:nonzero;"/>
                    </g>
                    <g transform="matrix(33.1647,0,0,33.1647,448.18,327.005)">
                        <path d="M0.045,-0.03C0.045,-0.011 0.056,0.001 0.069,0.006L0.038,0.089L0.081,0.089L0.121,-0.013C0.123,-0.019 0.124,-0.024 0.124,-0.03C0.124,-0.082 0.045,-0.082 0.045,-0.03Z" style="fill:white;fill-rule:nonzero;"/>
                    </g>
                    <g transform="matrix(33.1647,0,0,33.1647,463.866,327.005)">
                        <rect x="0.065" y="-0.7" width="0.053" height="0.7" style="fill:white;fill-rule:nonzero;"/>
                    </g>
                    <g transform="matrix(33.1647,0,0,33.1647,470.765,327.005)">
                        <rect x="0.073" y="-0.704" width="0.044" height="0.256" style="fill:white;fill-rule:nonzero;"/>
                    </g>
                    <g transform="matrix(33.1647,0,0,33.1647,477.696,327.005)">
                        <path d="M0.836,-0L0.836,-0.296C0.836,-0.419 0.75,-0.504 0.629,-0.504C0.553,-0.504 0.476,-0.463 0.446,-0.382C0.417,-0.47 0.338,-0.504 0.263,-0.504C0.199,-0.504 0.136,-0.477 0.102,-0.412L0.101,-0.494L0.055,-0.494L0.055,-0L0.104,-0L0.104,-0.293C0.104,-0.388 0.168,-0.457 0.262,-0.457C0.356,-0.457 0.421,-0.388 0.421,-0.293L0.421,-0L0.47,-0L0.47,-0.293C0.47,-0.388 0.535,-0.458 0.629,-0.458C0.723,-0.458 0.787,-0.391 0.787,-0.296L0.787,-0L0.836,-0Z" style="fill:white;fill-rule:nonzero;"/>
                    </g>
                </g>
                <g transform="matrix(5.56537,0,0,5.56537,-1212.77,-1999.69)">
                    <g transform="matrix(55.6366,0,0,55.6366,460.866,564.827)">
                        <path d="M0.651,-0.613C0.579,-0.684 0.485,-0.72 0.391,-0.72C0.144,-0.72 0.021,-0.538 0.021,-0.341C0.021,-0.157 0.128,0.016 0.391,0.016C0.514,0.016 0.601,-0.031 0.67,-0.11L0.67,-0.405L0.37,-0.405L0.37,-0.287L0.549,-0.287L0.549,-0.163C0.494,-0.119 0.446,-0.107 0.391,-0.107C0.217,-0.107 0.15,-0.226 0.15,-0.341C0.15,-0.485 0.241,-0.599 0.391,-0.599C0.452,-0.599 0.522,-0.574 0.569,-0.529L0.651,-0.613Z" style="fill:white;fill-rule:nonzero;"/>
                    </g>
                    <g transform="matrix(55.6366,0,0,55.6366,502.037,564.827)">
                        <path d="M0.529,-0.203C0.548,-0.406 0.445,-0.508 0.28,-0.508C0.12,-0.508 0.018,-0.4 0.018,-0.25C0.018,-0.092 0.119,0.013 0.289,0.013C0.364,0.013 0.449,-0.013 0.501,-0.067L0.423,-0.144C0.395,-0.115 0.336,-0.098 0.291,-0.098C0.205,-0.098 0.152,-0.142 0.144,-0.203L0.529,-0.203ZM0.146,-0.304C0.164,-0.368 0.218,-0.4 0.284,-0.4C0.354,-0.4 0.404,-0.368 0.412,-0.304L0.146,-0.304Z" style="fill:white;fill-rule:nonzero;"/>
                    </g>
                    <g transform="matrix(55.6366,0,0,55.6366,534.473,564.827)">
                        <path d="M0.272,-0.503C0.115,-0.503 0.017,-0.387 0.017,-0.246C0.017,-0.104 0.113,0.011 0.273,0.011C0.433,0.011 0.53,-0.104 0.53,-0.246C0.53,-0.387 0.429,-0.503 0.272,-0.503ZM0.273,-0.392C0.355,-0.392 0.407,-0.32 0.407,-0.246C0.407,-0.171 0.362,-0.101 0.273,-0.101C0.184,-0.101 0.139,-0.171 0.139,-0.246C0.139,-0.32 0.185,-0.392 0.273,-0.392Z" style="fill:white;fill-rule:nonzero;"/>
                    </g>
                    <g transform="matrix(55.6366,0,0,55.6366,566.408,564.827)">
                        <path d="M0.04,-0.493L0.04,-0L0.162,-0L0.162,-0.26C0.162,-0.351 0.221,-0.385 0.285,-0.385C0.325,-0.385 0.348,-0.374 0.373,-0.353L0.428,-0.459C0.401,-0.486 0.352,-0.506 0.301,-0.506C0.251,-0.506 0.2,-0.497 0.162,-0.436L0.153,-0.493L0.04,-0.493Z" style="fill:white;fill-rule:nonzero;"/>
                    </g>
                    <g transform="matrix(55.6366,0,0,55.6366,590.555,564.827)">
                        <path d="M0.378,-0.481C0.344,-0.504 0.304,-0.509 0.265,-0.509C0.127,-0.509 0.015,-0.413 0.015,-0.259C0.015,-0.105 0.111,-0.011 0.265,-0.011C0.326,-0.011 0.39,0.02 0.39,0.088C0.39,0.156 0.335,0.194 0.265,0.194C0.195,0.194 0.136,0.152 0.136,0.088L0.015,0.088C0.015,0.221 0.122,0.308 0.265,0.308C0.408,0.308 0.512,0.224 0.512,0.088C0.512,0.025 0.492,-0.034 0.41,-0.075C0.491,-0.112 0.514,-0.198 0.514,-0.259C0.514,-0.313 0.5,-0.362 0.462,-0.405L0.517,-0.475L0.427,-0.543L0.378,-0.481ZM0.265,-0.398C0.335,-0.398 0.393,-0.344 0.393,-0.259C0.393,-0.174 0.335,-0.122 0.265,-0.122C0.194,-0.122 0.136,-0.173 0.136,-0.259C0.136,-0.345 0.194,-0.398 0.265,-0.398Z" style="fill:white;fill-rule:nonzero;"/>
                    </g>
                    <g transform="matrix(55.6366,0,0,55.6366,621.266,564.827)">
                        <path d="M0.529,-0.203C0.548,-0.406 0.445,-0.508 0.28,-0.508C0.12,-0.508 0.018,-0.4 0.018,-0.25C0.018,-0.092 0.119,0.013 0.289,0.013C0.364,0.013 0.449,-0.013 0.501,-0.067L0.423,-0.144C0.395,-0.115 0.336,-0.098 0.291,-0.098C0.205,-0.098 0.152,-0.142 0.144,-0.203L0.529,-0.203ZM0.146,-0.304C0.164,-0.368 0.218,-0.4 0.284,-0.4C0.354,-0.4 0.404,-0.368 0.412,-0.304L0.146,-0.304Z" style="fill:white;fill-rule:nonzero;"/>
                    </g>
                    <g transform="matrix(55.6366,0,0,55.6366,653.702,564.827)">
                        <path d="M0.037,-0.063C0.037,0.032 0.181,0.032 0.181,-0.063C0.181,-0.158 0.037,-0.158 0.037,-0.063Z" style="fill:white;fill-rule:nonzero;"/>
                    </g>
                </g>
            </g>
        </g>
        <g transform="matrix(1,0,0,2.13449,2667.89,2907.6)">
            <g transform="matrix(1.07442,0,0,0.50336,-2987.33,-1566.67)">
                <g transform="matrix(51.4721,0,0,51.4721,3584.22,3791.92)">
                    <path d="M0.586,-0.585C0.533,-0.693 0.42,-0.724 0.311,-0.724C0.182,-0.723 0.04,-0.664 0.04,-0.52C0.04,-0.363 0.172,-0.325 0.315,-0.308C0.408,-0.298 0.477,-0.271 0.477,-0.205C0.477,-0.129 0.399,-0.1 0.316,-0.1C0.231,-0.1 0.15,-0.134 0.119,-0.211L0.009,-0.154C0.061,-0.026 0.171,0.018 0.314,0.018C0.47,0.018 0.608,-0.049 0.608,-0.205C0.608,-0.372 0.472,-0.41 0.326,-0.428C0.242,-0.438 0.17,-0.455 0.17,-0.516C0.17,-0.568 0.217,-0.609 0.315,-0.609C0.391,-0.609 0.457,-0.571 0.481,-0.531L0.586,-0.585Z" style="fill:white;fill-rule:nonzero;"/>
                </g>
                <g transform="matrix(51.4721,0,0,51.4721,3619.28,3791.92)">
                    <path d="M0.272,-0.503C0.115,-0.503 0.017,-0.387 0.017,-0.246C0.017,-0.104 0.113,0.011 0.273,0.011C0.433,0.011 0.53,-0.104 0.53,-0.246C0.53,-0.387 0.429,-0.503 0.272,-0.503ZM0.273,-0.392C0.355,-0.392 0.407,-0.32 0.407,-0.246C0.407,-0.171 0.362,-0.101 0.273,-0.101C0.184,-0.101 0.139,-0.171 0.139,-0.246C0.139,-0.32 0.185,-0.392 0.273,-0.392Z" style="fill:white;fill-rule:nonzero;"/>
                </g>
                <g transform="matrix(51.4721,0,0,51.4721,3648.82,3791.92)">
                    <path d="M0.202,-0L0.202,-0.379L0.347,-0.379L0.347,-0.486L0.202,-0.486L0.202,-0.519C0.202,-0.579 0.234,-0.607 0.276,-0.607C0.301,-0.607 0.325,-0.598 0.351,-0.581L0.396,-0.672C0.356,-0.698 0.311,-0.712 0.268,-0.712C0.169,-0.712 0.08,-0.651 0.08,-0.519L0.08,-0.486L-0.012,-0.486L-0.012,-0.379L0.08,-0.379L0.08,-0L0.202,-0Z" style="fill:white;fill-rule:nonzero;"/>
                </g>
                <g transform="matrix(51.4721,0,0,51.4721,3669.57,3791.92)">
                    <path d="M0.09,-0.619L0.09,-0.492L-0.002,-0.492L-0.002,-0.387L0.09,-0.387L0.09,-0.174C0.09,-0.051 0.16,0.01 0.267,0.006C0.304,0.005 0.333,-0.001 0.368,-0.015L0.334,-0.119C0.316,-0.11 0.294,-0.104 0.275,-0.104C0.237,-0.104 0.211,-0.127 0.211,-0.174L0.211,-0.387L0.348,-0.387L0.348,-0.492L0.212,-0.492L0.212,-0.632L0.09,-0.619Z" style="fill:white;fill-rule:nonzero;"/>
                </g>
                <g transform="matrix(51.4721,0,0,51.4721,3690.1,3791.92)">
                    <path d="M0.386,-0.494L0.279,-0.123L0.166,-0.494L0.03,-0.494L0.203,0.002L0.345,0.002L0.396,-0.144L0.44,-0.309L0.484,-0.144L0.535,0.002L0.677,0.002L0.849,-0.494L0.714,-0.494L0.601,-0.123L0.493,-0.494L0.386,-0.494Z" style="fill:white;fill-rule:nonzero;"/>
                </g>
                <g transform="matrix(51.4721,0,0,51.4721,3737.05,3791.92)">
                    <path d="M0.427,-0.425C0.399,-0.474 0.336,-0.505 0.27,-0.505C0.126,-0.506 0.013,-0.417 0.013,-0.247C0.013,-0.074 0.121,0.016 0.267,0.015C0.322,0.014 0.399,-0.014 0.427,-0.072L0.433,-0L0.548,-0L0.548,-0.493L0.431,-0.493L0.427,-0.425ZM0.281,-0.396C0.473,-0.396 0.473,-0.097 0.281,-0.097C0.2,-0.097 0.135,-0.153 0.135,-0.247C0.135,-0.341 0.2,-0.396 0.281,-0.396Z" style="fill:white;fill-rule:nonzero;"/>
                </g>
                <g transform="matrix(51.4721,0,0,51.4721,3768.49,3791.92)">
                    <path d="M0.04,-0.493L0.04,-0L0.162,-0L0.162,-0.26C0.162,-0.351 0.221,-0.385 0.285,-0.385C0.325,-0.385 0.348,-0.374 0.373,-0.353L0.428,-0.459C0.401,-0.486 0.352,-0.506 0.301,-0.506C0.251,-0.506 0.2,-0.497 0.162,-0.436L0.153,-0.493L0.04,-0.493Z" style="fill:white;fill-rule:nonzero;"/>
                </g>
                <g transform="matrix(51.4721,0,0,51.4721,3790.83,3791.92)">
                    <path d="M0.529,-0.203C0.548,-0.406 0.445,-0.508 0.28,-0.508C0.12,-0.508 0.018,-0.4 0.018,-0.25C0.018,-0.092 0.119,0.013 0.289,0.013C0.364,0.013 0.449,-0.013 0.501,-0.067L0.423,-0.144C0.395,-0.115 0.336,-0.098 0.291,-0.098C0.205,-0.098 0.152,-0.142 0.144,-0.203L0.529,-0.203ZM0.146,-0.304C0.164,-0.368 0.218,-0.4 0.284,-0.4C0.354,-0.4 0.404,-0.368 0.412,-0.304L0.146,-0.304Z" style="fill:white;fill-rule:nonzero;"/>
                </g>
                <g transform="matrix(51.4721,0,0,51.4721,3831.24,3791.92)">
                    <path d="M0.571,-0.13L0.178,-0.13L0.178,-0.288L0.557,-0.288L0.557,-0.411L0.178,-0.411L0.178,-0.572L0.571,-0.572L0.571,-0.7L0.047,-0.7L0.047,-0L0.571,-0L0.571,-0.13Z" style="fill:white;fill-rule:nonzero;"/>
                </g>
                <g transform="matrix(51.4721,0,0,51.4721,3863.36,3791.92)">
                    <path d="M0.525,-0L0.525,-0.259C0.525,-0.414 0.432,-0.501 0.316,-0.501C0.254,-0.501 0.204,-0.476 0.154,-0.427L0.146,-0.494L0.037,-0.494L0.037,-0L0.158,-0L0.158,-0.252C0.158,-0.327 0.209,-0.39 0.284,-0.39C0.362,-0.39 0.403,-0.333 0.403,-0.258L0.403,-0L0.525,-0Z" style="fill:white;fill-rule:nonzero;"/>
                </g>
                <g transform="matrix(51.4721,0,0,51.4721,3893.73,3791.92)">
                    <path d="M0.378,-0.481C0.344,-0.504 0.304,-0.509 0.265,-0.509C0.127,-0.509 0.015,-0.413 0.015,-0.259C0.015,-0.105 0.111,-0.011 0.265,-0.011C0.326,-0.011 0.39,0.02 0.39,0.088C0.39,0.156 0.335,0.194 0.265,0.194C0.195,0.194 0.136,0.152 0.136,0.088L0.015,0.088C0.015,0.221 0.122,0.308 0.265,0.308C0.408,0.308 0.512,0.224 0.512,0.088C0.512,0.025 0.492,-0.034 0.41,-0.075C0.491,-0.112 0.514,-0.198 0.514,-0.259C0.514,-0.313 0.5,-0.362 0.462,-0.405L0.517,-0.475L0.427,-0.543L0.378,-0.481ZM0.265,-0.398C0.335,-0.398 0.393,-0.344 0.393,-0.259C0.393,-0.174 0.335,-0.122 0.265,-0.122C0.194,-0.122 0.136,-0.173 0.136,-0.259C0.136,-0.345 0.194,-0.398 0.265,-0.398Z" style="fill:white;fill-rule:nonzero;"/>
                </g>
                <g transform="matrix(51.4721,0,0,51.4721,3922.14,3791.92)">
                    <path d="M0.162,-0.495L0.162,-0L0.04,-0L0.04,-0.495L0.162,-0.495ZM0.029,-0.632C0.029,-0.537 0.173,-0.537 0.173,-0.632C0.173,-0.727 0.029,-0.727 0.029,-0.632Z" style="fill:white;fill-rule:nonzero;"/>
                </g>
                <g transform="matrix(51.4721,0,0,51.4721,3934.08,3791.92)">
                    <path d="M0.525,-0L0.525,-0.259C0.525,-0.414 0.432,-0.501 0.316,-0.501C0.254,-0.501 0.204,-0.476 0.154,-0.427L0.146,-0.494L0.037,-0.494L0.037,-0L0.158,-0L0.158,-0.252C0.158,-0.327 0.209,-0.39 0.284,-0.39C0.362,-0.39 0.403,-0.333 0.403,-0.258L0.403,-0L0.525,-0Z" style="fill:white;fill-rule:nonzero;"/>
                </g>
                <g transform="matrix(51.4721,0,0,51.4721,3964.45,3791.92)">
                    <path d="M0.529,-0.203C0.548,-0.406 0.445,-0.508 0.28,-0.508C0.12,-0.508 0.018,-0.4 0.018,-0.25C0.018,-0.092 0.119,0.013 0.289,0.013C0.364,0.013 0.449,-0.013 0.501,-0.067L0.423,-0.144C0.395,-0.115 0.336,-0.098 0.291,-0.098C0.205,-0.098 0.152,-0.142 0.144,-0.203L0.529,-0.203ZM0.146,-0.304C0.164,-0.368 0.218,-0.4 0.284,-0.4C0.354,-0.4 0.404,-0.368 0.412,-0.304L0.146,-0.304Z" style="fill:white;fill-rule:nonzero;"/>
                </g>
                <g transform="matrix(51.4721,0,0,51.4721,3994.46,3791.92)">
                    <path d="M0.529,-0.203C0.548,-0.406 0.445,-0.508 0.28,-0.508C0.12,-0.508 0.018,-0.4 0.018,-0.25C0.018,-0.092 0.119,0.013 0.289,0.013C0.364,0.013 0.449,-0.013 0.501,-0.067L0.423,-0.144C0.395,-0.115 0.336,-0.098 0.291,-0.098C0.205,-0.098 0.152,-0.142 0.144,-0.203L0.529,-0.203ZM0.146,-0.304C0.164,-0.368 0.218,-0.4 0.284,-0.4C0.354,-0.4 0.404,-0.368 0.412,-0.304L0.146,-0.304Z" style="fill:white;fill-rule:nonzero;"/>
                </g>
                <g transform="matrix(51.4721,0,0,51.4721,4024.47,3791.92)">
                    <path d="M0.04,-0.493L0.04,-0L0.162,-0L0.162,-0.26C0.162,-0.351 0.221,-0.385 0.285,-0.385C0.325,-0.385 0.348,-0.374 0.373,-0.353L0.428,-0.459C0.401,-0.486 0.352,-0.506 0.301,-0.506C0.251,-0.506 0.2,-0.497 0.162,-0.436L0.153,-0.493L0.04,-0.493Z" style="fill:white;fill-rule:nonzero;"/>
                </g>
                <g transform="matrix(51.4721,0,0,51.4721,4046.8,3791.92)">
                    <path d="M0.037,-0.063C0.037,0.032 0.181,0.032 0.181,-0.063C0.181,-0.158 0.037,-0.158 0.037,-0.063Z" style="fill:white;fill-rule:nonzero;"/>
                </g>
                <g transform="matrix(51.4721,0,0,51.4721,3584.22,3848.98)">
                    <path d="M0.181,-0L0.181,-0.259L0.532,-0.259L0.532,-0.381L0.181,-0.381L0.181,-0.572L0.552,-0.572L0.552,-0.699L0.049,-0.699L0.049,-0L0.181,-0Z" style="fill:white;fill-rule:nonzero;"/>
                </g>
                <g transform="matrix(51.4721,0,0,51.4721,3614.8,3848.98)">
                    <path d="M0.043,-0.493L0.043,-0.234C0.043,-0.081 0.129,0.008 0.247,0.008C0.316,0.008 0.363,-0.016 0.414,-0.066L0.422,0.001L0.531,0.001L0.531,-0.493L0.41,-0.493L0.41,-0.241C0.41,-0.166 0.359,-0.103 0.284,-0.103C0.206,-0.103 0.165,-0.16 0.165,-0.235L0.165,-0.493L0.043,-0.493Z" style="fill:white;fill-rule:nonzero;"/>
                </g>
                <g transform="matrix(51.4721,0,0,51.4721,3645.63,3848.98)">
                    <path d="M0.09,-0.619L0.09,-0.492L-0.002,-0.492L-0.002,-0.387L0.09,-0.387L0.09,-0.174C0.09,-0.051 0.16,0.01 0.267,0.006C0.304,0.005 0.333,-0.001 0.368,-0.015L0.334,-0.119C0.316,-0.11 0.294,-0.104 0.275,-0.104C0.237,-0.104 0.211,-0.127 0.211,-0.174L0.211,-0.387L0.348,-0.387L0.348,-0.492L0.212,-0.492L0.212,-0.632L0.09,-0.619Z" style="fill:white;fill-rule:nonzero;"/>
                </g>
                <g transform="matrix(51.4721,0,0,51.4721,3666.17,3848.98)">
                    <path d="M0.043,-0.493L0.043,-0.234C0.043,-0.081 0.129,0.008 0.247,0.008C0.316,0.008 0.363,-0.016 0.414,-0.066L0.422,0.001L0.531,0.001L0.531,-0.493L0.41,-0.493L0.41,-0.241C0.41,-0.166 0.359,-0.103 0.284,-0.103C0.206,-0.103 0.165,-0.16 0.165,-0.235L0.165,-0.493L0.043,-0.493Z" style="fill:white;fill-rule:nonzero;"/>
                </g>
                <g transform="matrix(51.4721,0,0,51.4721,3697,3848.98)">
                    <path d="M0.04,-0.493L0.04,-0L0.162,-0L0.162,-0.26C0.162,-0.351 0.221,-0.385 0.285,-0.385C0.325,-0.385 0.348,-0.374 0.373,-0.353L0.428,-0.459C0.401,-0.486 0.352,-0.506 0.301,-0.506C0.251,-0.506 0.2,-0.497 0.162,-0.436L0.153,-0.493L0.04,-0.493Z" style="fill:white;fill-rule:nonzero;"/>
                </g>
                <g transform="matrix(51.4721,0,0,51.4721,3719.34,3848.98)">
                    <path d="M0.529,-0.203C0.548,-0.406 0.445,-0.508 0.28,-0.508C0.12,-0.508 0.018,-0.4 0.018,-0.25C0.018,-0.092 0.119,0.013 0.289,0.013C0.364,0.013 0.449,-0.013 0.501,-0.067L0.423,-0.144C0.395,-0.115 0.336,-0.098 0.291,-0.098C0.205,-0.098 0.152,-0.142 0.144,-0.203L0.529,-0.203ZM0.146,-0.304C0.164,-0.368 0.218,-0.4 0.284,-0.4C0.354,-0.4 0.404,-0.368 0.412,-0.304L0.146,-0.304Z" style="fill:white;fill-rule:nonzero;"/>
                </g>
                <g transform="matrix(51.4721,0,0,51.4721,3759.74,3848.98)">
                    <path d="M0.605,-0L0.749,-0L0.435,-0.7L0.291,-0.7L-0.023,-0L0.12,-0L0.18,-0.132L0.546,-0.132L0.605,-0ZM0.493,-0.255L0.233,-0.255L0.363,-0.553L0.493,-0.255Z" style="fill:white;fill-rule:nonzero;"/>
                </g>
                <g transform="matrix(51.4721,0,0,51.4721,3798.3,3848.98)">
                    <path d="M0.04,-0.493L0.04,-0L0.162,-0L0.162,-0.26C0.162,-0.351 0.221,-0.385 0.285,-0.385C0.325,-0.385 0.348,-0.374 0.373,-0.353L0.428,-0.459C0.401,-0.486 0.352,-0.506 0.301,-0.506C0.251,-0.506 0.2,-0.497 0.162,-0.436L0.153,-0.493L0.04,-0.493Z" style="fill:white;fill-rule:nonzero;"/>
                </g>
                <g transform="matrix(51.4721,0,0,51.4721,3820.64,3848.98)">
                    <path d="M0.381,-0.143C0.351,-0.113 0.312,-0.102 0.273,-0.102C0.197,-0.102 0.133,-0.152 0.133,-0.246C0.133,-0.332 0.193,-0.392 0.275,-0.392C0.309,-0.392 0.345,-0.379 0.374,-0.353L0.451,-0.434C0.397,-0.487 0.343,-0.507 0.273,-0.507C0.13,-0.507 0.011,-0.421 0.011,-0.246C0.011,-0.071 0.13,0.015 0.273,0.015C0.346,0.015 0.406,-0.007 0.463,-0.063L0.381,-0.143Z" style="fill:white;fill-rule:nonzero;"/>
                </g>
                <g transform="matrix(51.4721,0,0,51.4721,3845.19,3848.98)">
                    <path d="M0.04,-0.7L0.04,-0L0.162,-0L0.162,-0.252C0.162,-0.326 0.212,-0.387 0.284,-0.387C0.349,-0.387 0.396,-0.349 0.396,-0.259L0.396,-0L0.518,-0L0.518,-0.26C0.518,-0.405 0.456,-0.5 0.316,-0.5C0.26,-0.5 0.206,-0.483 0.162,-0.426L0.162,-0.7L0.04,-0.7Z" style="fill:white;fill-rule:nonzero;"/>
                </g>
                <g transform="matrix(51.4721,0,0,51.4721,3875.09,3848.98)">
                    <path d="M0.162,-0.495L0.162,-0L0.04,-0L0.04,-0.495L0.162,-0.495ZM0.029,-0.632C0.029,-0.537 0.173,-0.537 0.173,-0.632C0.173,-0.727 0.029,-0.727 0.029,-0.632Z" style="fill:white;fill-rule:nonzero;"/>
                </g>
                <g transform="matrix(51.4721,0,0,51.4721,3887.04,3848.98)">
                    <path d="M0.09,-0.619L0.09,-0.492L-0.002,-0.492L-0.002,-0.387L0.09,-0.387L0.09,-0.174C0.09,-0.051 0.16,0.01 0.267,0.006C0.304,0.005 0.333,-0.001 0.368,-0.015L0.334,-0.119C0.316,-0.11 0.294,-0.104 0.275,-0.104C0.237,-0.104 0.211,-0.127 0.211,-0.174L0.211,-0.387L0.348,-0.387L0.348,-0.492L0.212,-0.492L0.212,-0.632L0.09,-0.619Z" style="fill:white;fill-rule:nonzero;"/>
                </g>
                <g transform="matrix(51.4721,0,0,51.4721,3907.57,3848.98)">
                    <path d="M0.529,-0.203C0.548,-0.406 0.445,-0.508 0.28,-0.508C0.12,-0.508 0.018,-0.4 0.018,-0.25C0.018,-0.092 0.119,0.013 0.289,0.013C0.364,0.013 0.449,-0.013 0.501,-0.067L0.423,-0.144C0.395,-0.115 0.336,-0.098 0.291,-0.098C0.205,-0.098 0.152,-0.142 0.144,-0.203L0.529,-0.203ZM0.146,-0.304C0.164,-0.368 0.218,-0.4 0.284,-0.4C0.354,-0.4 0.404,-0.368 0.412,-0.304L0.146,-0.304Z" style="fill:white;fill-rule:nonzero;"/>
                </g>
                <g transform="matrix(51.4721,0,0,51.4721,3937.58,3848.98)">
                    <path d="M0.381,-0.143C0.351,-0.113 0.312,-0.102 0.273,-0.102C0.197,-0.102 0.133,-0.152 0.133,-0.246C0.133,-0.332 0.193,-0.392 0.275,-0.392C0.309,-0.392 0.345,-0.379 0.374,-0.353L0.451,-0.434C0.397,-0.487 0.343,-0.507 0.273,-0.507C0.13,-0.507 0.011,-0.421 0.011,-0.246C0.011,-0.071 0.13,0.015 0.273,0.015C0.346,0.015 0.406,-0.007 0.463,-0.063L0.381,-0.143Z" style="fill:white;fill-rule:nonzero;"/>
                </g>
                <g transform="matrix(51.4721,0,0,51.4721,3962.13,3848.98)">
                    <path d="M0.09,-0.619L0.09,-0.492L-0.002,-0.492L-0.002,-0.387L0.09,-0.387L0.09,-0.174C0.09,-0.051 0.16,0.01 0.267,0.006C0.304,0.005 0.333,-0.001 0.368,-0.015L0.334,-0.119C0.316,-0.11 0.294,-0.104 0.275,-0.104C0.237,-0.104 0.211,-0.127 0.211,-0.174L0.211,-0.387L0.348,-0.387L0.348,-0.492L0.212,-0.492L0.212,-0.632L0.09,-0.619Z" style="fill:white;fill-rule:nonzero;"/>
                </g>
                <g transform="matrix(51.4721,0,0,51.4721,3982.67,3848.98)">
                    <path d="M0.037,-0.063C0.037,0.032 0.181,0.032 0.181,-0.063C0.181,-0.158 0.037,-0.158 0.037,-0.063Z" style="fill:white;fill-rule:nonzero;"/>
                </g>
                <g transform="matrix(51.4721,0,0,51.4721,3584.22,3906.04)">
                    <path d="M0.378,-0.714C0.136,-0.714 0.018,-0.529 0.018,-0.345C0.018,-0.161 0.132,0.016 0.378,0.016C0.624,0.016 0.735,-0.165 0.737,-0.346C0.739,-0.529 0.619,-0.714 0.378,-0.714ZM0.378,-0.594C0.543,-0.594 0.609,-0.462 0.607,-0.344C0.605,-0.229 0.543,-0.105 0.378,-0.105C0.213,-0.105 0.151,-0.228 0.148,-0.343C0.145,-0.461 0.213,-0.594 0.378,-0.594Z" style="fill:rgb(246,203,33);fill-rule:nonzero;"/>
                </g>
                <g transform="matrix(51.4721,0,0,51.4721,3624.63,3906.04)">
                    <path d="M0.313,-0.106C0.23,-0.106 0.173,-0.169 0.173,-0.246C0.173,-0.323 0.225,-0.386 0.313,-0.386C0.401,-0.386 0.453,-0.323 0.453,-0.246C0.453,-0.169 0.396,-0.106 0.313,-0.106ZM0.162,0.206L0.162,-0.058C0.197,-0.004 0.274,0.012 0.326,0.012C0.484,0.012 0.575,-0.102 0.575,-0.246C0.575,-0.391 0.474,-0.504 0.322,-0.504C0.266,-0.504 0.2,-0.48 0.162,-0.425L0.154,-0.493L0.04,-0.493L0.04,0.206L0.162,0.206Z" style="fill:rgb(246,203,33);fill-rule:nonzero;"/>
                </g>
                <g transform="matrix(51.4721,0,0,51.4721,3656.8,3906.04)">
                    <path d="M0.09,-0.619L0.09,-0.492L-0.002,-0.492L-0.002,-0.387L0.09,-0.387L0.09,-0.174C0.09,-0.051 0.16,0.01 0.267,0.006C0.304,0.005 0.333,-0.001 0.368,-0.015L0.334,-0.119C0.316,-0.11 0.294,-0.104 0.275,-0.104C0.237,-0.104 0.211,-0.127 0.211,-0.174L0.211,-0.387L0.348,-0.387L0.348,-0.492L0.212,-0.492L0.212,-0.632L0.09,-0.619Z" style="fill:rgb(246,203,33);fill-rule:nonzero;"/>
                </g>
                <g transform="matrix(51.4721,0,0,51.4721,3677.34,3906.04)">
                    <path d="M0.162,-0.495L0.162,-0L0.04,-0L0.04,-0.495L0.162,-0.495ZM0.029,-0.632C0.029,-0.537 0.173,-0.537 0.173,-0.632C0.173,-0.727 0.029,-0.727 0.029,-0.632Z" style="fill:rgb(246,203,33);fill-rule:nonzero;"/>
                </g>
                <g transform="matrix(51.4721,0,0,51.4721,3689.28,3906.04)">
                    <path d="M0.49,-0L0.49,-0.264C0.49,-0.329 0.531,-0.386 0.597,-0.386C0.663,-0.386 0.69,-0.331 0.69,-0.266L0.69,-0L0.812,-0L0.812,-0.266C0.812,-0.414 0.743,-0.5 0.603,-0.5C0.539,-0.5 0.482,-0.48 0.438,-0.41C0.41,-0.478 0.351,-0.502 0.292,-0.502C0.245,-0.502 0.188,-0.484 0.162,-0.434L0.153,-0.494L0.04,-0.494L0.04,-0L0.162,-0L0.162,-0.264C0.162,-0.329 0.201,-0.388 0.267,-0.388C0.334,-0.388 0.368,-0.329 0.368,-0.264L0.368,-0L0.49,-0Z" style="fill:rgb(246,203,33);fill-rule:nonzero;"/>
                </g>
                <g transform="matrix(51.4721,0,0,51.4721,3735.4,3906.04)">
                    <path d="M0.162,-0.495L0.162,-0L0.04,-0L0.04,-0.495L0.162,-0.495ZM0.029,-0.632C0.029,-0.537 0.173,-0.537 0.173,-0.632C0.173,-0.727 0.029,-0.727 0.029,-0.632Z" style="fill:rgb(246,203,33);fill-rule:nonzero;"/>
                </g>
                <g transform="matrix(51.4721,0,0,51.4721,3747.34,3906.04)">
                    <path d="M0.43,-0.442C0.373,-0.492 0.315,-0.507 0.238,-0.507C0.148,-0.507 0.03,-0.467 0.03,-0.353C0.03,-0.241 0.141,-0.207 0.234,-0.2C0.304,-0.196 0.332,-0.182 0.332,-0.148C0.332,-0.112 0.289,-0.088 0.243,-0.089C0.188,-0.09 0.108,-0.119 0.073,-0.158L0.013,-0.071C0.085,0.004 0.163,0.017 0.241,0.017C0.382,0.017 0.453,-0.058 0.453,-0.145C0.453,-0.276 0.335,-0.297 0.242,-0.303C0.179,-0.307 0.15,-0.325 0.15,-0.357C0.15,-0.388 0.182,-0.406 0.24,-0.406C0.287,-0.406 0.327,-0.395 0.362,-0.362L0.43,-0.442Z" style="fill:rgb(246,203,33);fill-rule:nonzero;"/>
                </g>
                <g transform="matrix(51.4721,0,0,51.4721,3772.61,3906.04)">
                    <path d="M0.09,-0.619L0.09,-0.492L-0.002,-0.492L-0.002,-0.387L0.09,-0.387L0.09,-0.174C0.09,-0.051 0.16,0.01 0.267,0.006C0.304,0.005 0.333,-0.001 0.368,-0.015L0.334,-0.119C0.316,-0.11 0.294,-0.104 0.275,-0.104C0.237,-0.104 0.211,-0.127 0.211,-0.174L0.211,-0.387L0.348,-0.387L0.348,-0.492L0.212,-0.492L0.212,-0.632L0.09,-0.619Z" style="fill:rgb(246,203,33);fill-rule:nonzero;"/>
                </g>
                <g transform="matrix(51.4721,0,0,51.4721,3793.15,3906.04)">
                    <path d="M0.037,-0.063C0.037,0.032 0.181,0.032 0.181,-0.063C0.181,-0.158 0.037,-0.158 0.037,-0.063Z" style="fill:white;fill-rule:nonzero;"/>
                </g>
            </g>
        </g>
    </g>
</svg>
